<?xml version="1.0" encoding="utf-8"?>
<!-- Generator: Adobe Illustrator 13.0.0, SVG Export Plug-In  -->
<!DOCTYPE svg PUBLIC "-//W3C//DTD SVG 1.1//EN" "http://www.w3.org/Graphics/SVG/1.1/DTD/svg11.dtd" [
	<!ENTITY ns_flows "http://ns.adobe.com/Flows/1.0/">
]>
<svg version="1.1"
	 xmlns="http://www.w3.org/2000/svg" xmlns:xlink="http://www.w3.org/1999/xlink" xmlns:a="http://ns.adobe.com/AdobeSVGViewerExtensions/3.0/"
	 x="0px" y="0px" width="220px" height="220px" viewBox="-10 -13.949 220 220" enable-background="new -10 -13.949 220 220"
	 xml:space="preserve">
<defs>
</defs>
<path fill="#00AE4D" d="M95.008,95.648l-8.58-94.627C70.867,6.424,59.7,21.211,59.7,38.606c0,4.21,0.687,8.25,1.896,12.054
	c-6.512-4.654-14.485-7.408-23.103-7.408c-13.439,0-25.326,6.672-32.525,16.88L95.008,95.648z"/>
<path fill="#00AE4D" d="M92.505,104.4L0,82.724c0.218,16.47,10.735,31.729,27.247,37.212c3.993,1.323,8.044,1.946,12.037,1.997
	c-6.475,4.712-11.594,11.413-14.314,19.592c-4.236,12.757-1.649,26.138,5.767,36.187L92.505,104.4z"/>
<path fill="#00AE4D" d="M100.194,108.836l-48.81,81.519c15.754,4.801,33.487-0.568,43.737-14.628
	c2.478-3.402,4.307-7.068,5.571-10.856c2.52,7.601,7.343,14.52,14.308,19.596c10.856,7.919,24.393,9.53,36.22,5.525L100.194,108.836
	z"/>
<path fill="#00AE4D" d="M104.438,95.648l87.414-37.246c-9.923-13.146-27.427-19.228-43.979-13.883
	c-4.006,1.293-7.643,3.189-10.891,5.508c2.428-7.63,2.595-16.06-0.051-24.263C132.8,12.979,122.802,3.716,110.873,0L104.438,95.648z
	"/>
<path fill="#00AE4D" d="M107.068,103.73l62.509,71.558c9.421-13.506,9.777-32.039-0.436-46.118
	c-2.469-3.403-5.398-6.274-8.613-8.643c8.007-0.055,16.072-2.512,23.053-7.572c10.878-7.894,16.583-20.265,16.415-32.758
	L107.068,103.73z"/>
</svg>
