<?xml version="1.0" encoding="UTF-8" standalone="no"?>
<!-- Generator: Adobe Illustrator 13.0.0, SVG Export Plug-In  -->

<svg
   xmlns:dc="http://purl.org/dc/elements/1.1/"
   xmlns:cc="http://creativecommons.org/ns#"
   xmlns:rdf="http://www.w3.org/1999/02/22-rdf-syntax-ns#"
   xmlns:svg="http://www.w3.org/2000/svg"
   xmlns="http://www.w3.org/2000/svg"
   xmlns:sodipodi="http://sodipodi.sourceforge.net/DTD/sodipodi-0.dtd"
   xmlns:inkscape="http://www.inkscape.org/namespaces/inkscape"
   version="1.1"
   x="0px"
   y="0px"
   width="220px"
   height="220px"
   viewBox="144.686 98.584 220 220"
   enable-background="new 144.686 98.584 220 220"
   xml:space="preserve"
   id="svg2"
   inkscape:version="0.48.2 r9819"
   sodipodi:docname="Seal of North Gyeongsang.svg"><metadata
   id="metadata20"><rdf:RDF><cc:Work
       rdf:about=""><dc:format>image/svg+xml</dc:format><dc:type
         rdf:resource="http://purl.org/dc/dcmitype/StillImage" /><dc:title></dc:title></cc:Work></rdf:RDF></metadata><sodipodi:namedview
   pagecolor="#ffffff"
   bordercolor="#666666"
   borderopacity="1"
   objecttolerance="10"
   gridtolerance="10"
   guidetolerance="10"
   inkscape:pageopacity="0"
   inkscape:pageshadow="2"
   inkscape:window-width="1920"
   inkscape:window-height="1017"
   id="namedview18"
   showgrid="false"
   inkscape:zoom="1.3306464"
   inkscape:cx="474.6713"
   inkscape:cy="33.248793"
   inkscape:window-x="-8"
   inkscape:window-y="-8"
   inkscape:window-maximized="1"
   inkscape:current-layer="svg2" />
<defs
   id="defs4">
</defs>



<path
   display="none"
   fill="#0071BA"
   d="M272.65,11.068l108.01,70.296c0,0,55.032,29.566,6.124,56.07  c0,0-22.407,18.786-94.773,12.662c0,0-36.693-6.283-56.053-19.519c0,0-25.484-13.555-5.088-25.739c0,0,30.573-10.205-23.442-15.309  c0,0-56.052-6.124-79.497-2.041c0,0-39.739,2.041-58.08,8.165l135.535-88.38C205.386,7.273,240.041-11.386,272.65,11.068z"
   id="path12" />
<path
   display="none"
   fill="#0071BA"
   d="M20.927,123.145c0,0,28.545-21.368,92.731-22.388c0,0,39.758-2.043,62.162,5.071  c0,0-37.698,44.811,25.501,79.448c0,0,38.72,27.558,119.22,32.656c0,0,49.946,5.074,72.35,2.012l-108.009,68.317  c0,0-41.128,38.241-103.958-11.228L18.886,171.017C18.886,171.017-24.937,151.691,20.927,123.145z"
   id="path14" />
<path
   display="none"
   fill="#0071BA"
   d="M218.639,153.7c0,0,75.413,39.742,172.209,10.207c0,0,38.721-6.091,62.162-36.679  c0,0,44.859,20.381,13.254,42.801c0,0-2.027,12.22-79.48,22.421c0,0-54.015,3.063-78.477-4.114  C308.308,188.335,237.982,176.122,218.639,153.7z"
   id="path16" />
<g
   transform="matrix(0.25664449,0,0,0.25664449,97.013938,83.49894)"
   id="#205da8ff"><path
     style="fill:#205da8"
     inkscape:connector-curvature="0"
     d="m 278.05,559 c 79.44,-6.82 159.28,-7.61 238.93,-5.19 21.04,0.84 42.12,1.44 63.08,3.64 12.29,1.29 24.43,3.66 36.51,6.2 1.47,0.3 3.81,1.38 2.7,3.28 -2.53,4.86 0.31,10.04 0.22,15.1 -0.71,3.94 -4.61,6.53 -8.42,6.87 -7.43,0.63 -14.54,3.17 -22,3.62 -10.7,1.52 -21.36,-0.95 -32.05,-1.23 -6.15,-0.27 -11.84,2.83 -17.99,2.5 -20.33,-0.55 -40.67,-1.38 -61.02,-1.28 -7.02,0.05 -14.06,-0.24 -21.05,0.47 -23.29,1.66 -46.65,0.95 -69.96,1.79 -22.01,-0.5 -43.97,2.07 -65.98,1 -23.98,-0.9 -47.93,5.34 -71.84,1.57 -15.33,-2.66 -31.21,-9.3 -40.05,-22.77 2.44,-2.64 5.57,-4.58 9.08,-5.43 19.55,-5.33 39.64,-8.62 59.84,-10.14 z"
     id="path80" /></g><g
   transform="matrix(0.25664449,0,0,0.25664449,97.013938,83.49894)"
   id="#ff6600ff"><path
     style="fill:#ff6600"
     inkscape:connector-curvature="0"
     d="m 711.6,293.61 c 1.92,-1.33 3.91,-3.07 6.38,-3.1 4.58,1.25 9.26,3.87 11.13,8.48 3.55,7.99 2.18,17.11 0.42,25.38 -3.59,14.96 -9.66,29.34 -17.67,42.47 -2.87,4.33 -5.81,8.88 -10.22,11.79 -4.43,2.63 -10.02,0.56 -13.64,-2.54 -7.43,-6.48 -11.83,-15.57 -15.79,-24.41 -5.06,-11.87 -9.14,-24.19 -12.16,-36.74 12.44,1.99 22.03,11.35 28.67,21.51 2.62,-11.6 5.9,-23.36 12.48,-33.4 2.53,-4.06 6.65,-6.64 10.4,-9.44 z"
     id="path83" /></g><path
   style="fill:#000000"
   inkscape:connector-curvature="0"
   d="m 190.88936,167.58594 c 0.54922,-0.48506 1.29092,-0.64675 1.9428,-0.94959 0.7879,-0.018 1.59119,-0.12062 2.36113,0.11293 1.33712,0.32593 2.77176,0.0924 4.06781,0.60824 0.71091,0.21815 1.48084,0.11549 2.19175,0.35161 1.33968,0.52868 2.82309,0.50302 4.23207,0.33107 0.95471,-0.018 1.8427,0.36443 2.73583,0.65957 0.12318,-0.0642 0.3747,-0.19505 0.50045,-0.26177 0.66728,0.24381 1.53217,-0.11036 2.08909,0.37726 1.29862,-0.17965 2.62291,0.74171 3.87533,0.095 0.23611,0.14372 0.47223,0.29258 0.70577,0.44656 1.04198,0.0205 2.05316,-0.3362 3.0977,-0.18221 0.89056,-0.18479 1.77085,-0.3824 2.6614,-0.0616 0.51329,-0.13602 0.95472,0.19505 1.44235,0.29258 0.4055,-0.0642 0.81356,-0.17452 1.21906,-0.0257 1.74261,-0.22841 3.56479,0.25665 5.24838,-0.38753 1.21393,0.33364 2.47918,0.22328 3.71621,0.0924 0.095,-0.0873 0.28231,-0.26434 0.37727,-0.3516 0.17195,0.0411 0.51585,0.12575 0.6878,0.16682 0.11806,-0.11293 0.35417,-0.34134 0.47223,-0.45426 0.53895,0.0539 1.08047,0.0565 1.61943,-0.0128 0.3978,0.13859 0.76223,0.35161 1.13693,0.54922 -0.10009,0.20019 -0.30284,0.60568 -0.40293,0.80587 0.20018,0.003 0.59798,0.005 0.79816,0.005 -0.0411,0.20018 -0.12318,0.59798 -0.16425,0.7956 0.10779,0.0924 0.32081,0.27717 0.42603,0.36957 0.15399,1.56553 -0.56718,3.20292 -2.05829,3.84966 -0.73913,-0.13345 -1.33968,0.3978 -2.04032,0.48763 -2.3175,0.19248 -4.41172,1.50393 -6.76002,1.4911 -1.21906,-0.0411 -2.40732,0.26948 -3.59559,0.49533 -0.91365,-0.19762 -1.81191,0.18735 -2.72299,0.21558 1.05224,1.64765 2.33033,3.16442 3.23372,4.91217 0.41576,1.11384 1.1626,2.05573 1.81704,3.03867 0.17195,1.89917 1.21393,3.57763 1.31402,5.49476 0.3593,1.10871 0.51072,2.26617 0.62878,3.42107 -0.4286,1.67846 0.22841,3.47497 -0.35417,5.13033 -0.35674,1.32942 -0.52869,2.74096 -1.12924,3.98569 -1.00348,0.95985 -1.0625,2.61264 -2.31493,3.35691 -1.65279,1.12667 -2.83849,2.89751 -4.81465,3.52373 -1.09587,0.25151 -2.04289,0.92135 -3.05664,1.38588 -0.15655,-0.0359 -0.46966,-0.1078 -0.62621,-0.14629 -0.86489,0.36187 -1.74261,1.10357 -2.72813,0.81613 -0.50816,-0.17195 -1.01375,-0.005 -1.48854,0.18222 -0.67497,-0.059 -1.35765,-0.0616 -2.01979,-0.21815 -0.62878,0.13602 -1.26012,0.26434 -1.89147,0.37726 -0.57488,-0.23354 -1.20366,-0.18991 -1.80164,-0.0898 -0.87003,0.17195 -1.76059,-0.0924 -2.62291,0.13859 -1.34482,-0.60055 -3.00787,0.25408 -4.18844,-0.73914 -0.45683,0.008 -0.90852,0.0334 -1.36278,0.059 -0.68781,-0.40293 -1.48597,-0.4132 -2.25334,-0.48763 -0.63904,-0.18735 -1.26012,-0.43886 -1.92483,-0.51842 -0.27975,-0.27204 -0.56205,-0.54152 -0.83923,-0.81099 -0.0411,0.10265 -0.12319,0.30797 -0.16425,0.40806 -2.20458,-0.46966 -4.10375,-1.70925 -6.02858,-2.81539 -0.51586,-0.31054 -0.96242,-0.7186 -1.42438,-1.09844 -0.13602,-0.22071 -0.27974,-0.43373 -0.4286,-0.63904 -0.43886,-0.25151 -0.87259,-0.50559 -1.31145,-0.7494 -1.4834,-1.68872 -3.21319,-3.54683 -3.28762,-5.92849 0.70578,-0.0898 1.2242,-0.54152 1.63483,-1.09331 0.68267,-0.13089 1.54757,-0.38496 1.92997,0.40807 0.42603,0.3362 0.84949,0.67754 1.28065,1.01118 0.0488,0.13602 0.14886,0.41063 0.19762,0.54665 0.13859,0.0257 0.41576,0.0744 0.55435,0.10009 1.32685,1.06508 2.79999,1.92483 4.38862,2.53821 1.55527,0.32851 3.0669,1.02145 4.69146,0.90083 1.26526,0.40036 2.56132,0.79816 3.90613,0.78533 1.43721,0.22071 2.88982,0.0565 4.33729,0.14629 2.08139,-0.45683 4.39119,-0.44913 6.12611,-1.85811 0.59285,-0.64418 1.42951,-0.98038 2.03262,-1.60916 0.93162,-0.80843 1.30376,-2.02493 1.80421,-3.10797 0.22585,-0.41063 0.0513,-0.88799 0.0796,-1.32428 -0.0488,-0.65701 0.57489,-1.18826 0.444,-1.85041 -0.15912,-0.93932 -0.0873,-1.8966 0.17452,-2.81025 -0.32851,-1.26013 -0.60312,-2.53822 -0.70578,-3.83941 -0.0359,-0.52099 -0.49789,-0.92392 -0.43886,-1.4603 0.10779,-1.14721 -0.55692,-2.21998 -0.3362,-3.37745 -0.65445,-1.58863 -1.51677,-3.10539 -1.80935,-4.81978 -1.13693,-0.12832 -2.28156,-0.11036 -3.4108,0.0642 -0.87516,0.15399 -1.78625,-0.30284 -2.61777,0.11806 -0.88543,-0.0924 -1.76059,-0.36444 -2.65628,-0.21815 -0.0872,-0.0821 -0.26434,-0.24125 -0.3516,-0.32337 -0.50302,0.0385 -1.00091,0.10522 -1.4834,0.24124 -1.31659,-0.46196 -2.77946,-0.40293 -4.01392,-1.09843 -0.8495,-0.31054 -1.70926,-0.61595 -2.44582,-1.1549 -1.00605,-0.73401 -2.24821,-1.24216 -2.90265,-2.35343 -0.15656,-0.42603 0.18221,-0.82383 0.27974,-1.21907 -0.30798,-0.73143 -0.54409,-1.4911 -0.61595,-2.28413 -0.0796,-0.0642 -0.23611,-0.19249 -0.31567,-0.25665 0.32594,-0.98038 0.90339,-1.83757 1.45004,-2.70246 z"
   id="path86" /><path
   style="fill:#000000"
   inkscape:connector-curvature="0"
   d="m 245.49817,188.06873 c 0.88543,-0.0693 1.69129,-0.47735 2.55875,-0.63647 1.76571,0.3901 3.59302,-0.20789 5.3536,0.18991 0.26691,-0.059 0.53639,-0.11035 0.80843,-0.16168 1.69642,0.84436 3.52117,1.70668 4.60677,3.33124 -0.005,0.64418 0.27461,1.22676 0.56205,1.79138 0.27975,1.16773 0.61082,2.39963 0.15656,3.56993 -0.018,1.1164 -1.01118,1.81704 -1.2011,2.86672 -0.13345,0.72887 -0.80843,1.1549 -1.17543,1.75801 -0.85976,0.70321 -1.43208,1.66306 -2.15325,2.48689 -0.86489,0.36186 -1.74261,0.69807 -2.57158,1.14463 0.16939,0.30284 0.34647,0.60825 0.51586,0.91879 1.08304,0.52868 2.13785,1.31915 3.41081,1.19339 1.05224,0.61082 2.33546,0.71861 3.53142,0.66215 1.66819,0.18478 3.40311,0.0796 5.03537,-0.34391 1.39871,-0.18735 2.82822,-0.63134 3.95746,-1.5065 0.56718,-0.33364 1.19853,-0.53895 1.77854,-0.85463 0.64931,-0.60568 1.19853,-1.49367 2.16608,-1.56809 0.35161,-0.29258 0.70834,-0.58002 1.07278,-0.8572 -0.62878,-1.03171 -0.88543,-2.19944 -1.04968,-3.38 -0.87516,-1.57324 -0.72117,-3.43904 -1.30119,-5.10723 -0.3285,-0.82126 -0.27204,-1.72208 -0.36187,-2.58441 0.33877,-0.72117 0.55692,-1.49624 0.97269,-2.18148 0.52355,-0.0411 1.04454,-0.0231 1.57066,-0.018 -0.0205,-0.20532 -0.0616,-0.61082 -0.0821,-0.81613 0.86233,-0.095 1.71952,-0.21302 2.58441,-0.31054 0.059,0.0924 0.17709,0.27974 0.23612,0.3747 0.55178,0.11292 1.101,0.25151 1.66049,0.3516 0.0847,0.095 0.25664,0.28488 0.34133,0.37983 0.74427,0.27718 1.51421,0.11549 2.28157,0.0821 0.72631,0.51586 1.39872,1.12154 1.87094,1.88634 0.96499,1.45774 2.24564,2.77946 2.67167,4.52207 1.10101,1.42181 1.05738,3.29789 1.76058,4.89421 -0.15912,0.55436 -0.21558,1.12667 -0.22328,1.70412 0.11293,0.095 0.33364,0.28745 0.444,0.3824 -0.31054,1.37819 0.80843,2.71017 0.18991,4.04472 -0.0796,1.1241 0.34391,2.28157 -0.003,3.39028 0.0359,0.13345 0.11035,0.40036 0.14628,0.53382 -0.41063,0.82639 -0.53125,1.77598 -0.49019,2.68963 -0.13858,0.059 -0.42089,0.17708 -0.55948,0.23355 0.23611,0.54922 0.45939,1.11383 0.40293,1.72721 -0.78533,0.82897 -1.33968,1.9197 -1.40641,3.06691 -0.23098,0.42089 -0.52612,0.79816 -0.80586,1.18569 0.12062,1.12924 -0.65701,2.11732 -0.52099,3.22089 -0.47736,0.4209 -1.06764,0.85719 -1.09074,1.55783 -0.0873,0.96755 -1.20366,1.35509 -1.43978,2.26874 -0.16682,0.15142 -0.3285,0.30541 -0.49019,0.45939 -0.17195,0.27461 -0.35417,0.54409 -0.54665,0.80843 0.018,0.0565 0.0539,0.17452 0.0719,0.23355 -1.31402,1.27552 -2.37396,2.77433 -3.4724,4.2295 -1.39358,1.40641 -3.0669,2.48175 -4.71969,3.55966 -0.89056,0.54409 -1.48084,1.49881 -2.48945,1.85297 -0.4748,0.16169 -0.85976,0.47223 -1.13694,0.88799 -0.59542,0.0975 -1.1626,0.31311 -1.75801,0.40037 -0.59285,-0.0128 -1.13181,-0.28488 -1.69386,-0.43373 -0.26434,-0.18992 -0.52869,-0.37727 -0.79046,-0.55948 0.0385,-0.27461 0.0796,-0.54409 0.12832,-0.81357 -0.15912,-0.0847 -0.47736,-0.25408 -0.63648,-0.33877 0.14629,-0.10266 0.44143,-0.31054 0.59028,-0.4132 -0.22584,-0.0205 -0.67497,-0.059 -0.89825,-0.0796 -0.30284,-0.3362 -0.72887,-0.60568 -0.85976,-1.05737 0.55435,-0.53382 1.55526,-0.62108 1.82474,-1.40898 0.0873,-0.12319 0.26434,-0.3747 0.3516,-0.50046 0.32338,-0.0924 0.72631,-0.0719 0.92649,-0.39779 0.35417,-0.49789 0.99321,-0.65701 1.38331,-1.11897 0.57232,-0.55949 0.7802,-1.35509 1.21137,-2.0121 0.14628,0.0898 0.43886,0.26435 0.58515,0.35417 0.24637,-0.3362 -0.0411,-0.70064 -0.12833,-1.03684 1.30632,-0.73401 1.83758,-2.21741 2.98478,-3.1285 -0.12576,-0.0154 -0.37984,-0.0488 -0.50559,-0.0642 0.52869,-0.68524 1.32428,-1.27552 1.47314,-2.16865 0.13089,-0.0334 0.39266,-0.0975 0.52612,-0.13088 -0.31311,-0.46966 -0.51072,-0.99578 -0.63905,-1.53987 0.11036,0.018 0.33621,0.0565 0.44657,0.0744 -0.005,-0.67241 0.059,-1.37818 0.40549,-1.97103 0.38497,-0.60568 0.17452,-1.39872 0.56462,-2.01466 0.44913,-0.7956 0.54409,-1.71695 0.24895,-2.58441 1.1087,-1.21136 0.0205,-2.93345 0.62878,-4.2911 -0.13603,-0.0565 -0.4055,-0.16938 -0.54152,-0.22585 0.0847,-0.10522 0.25151,-0.3208 0.3362,-0.42603 -0.0821,-0.47479 -0.12062,-0.95215 -0.19762,-1.42181 0.0385,-0.0821 0.11036,-0.24124 0.14629,-0.32337 -0.22841,-0.49789 -0.3978,-1.01888 -0.53639,-1.545 -0.95471,0.85206 -2.16351,1.31146 -3.17469,2.06086 -0.10009,0.0231 -0.30027,0.0719 -0.40036,0.095 -0.94445,0.6647 -2.07626,0.98038 -3.07204,1.55526 -1.1626,0.69807 -2.69476,0.50559 -3.73161,1.42438 -0.49276,0.0513 -0.98038,0.018 -1.45261,-0.12319 -2.55361,0.64418 -5.19448,0.95472 -7.83022,1.03171 -1.03428,0.0693 -2.03519,-0.31054 -3.0669,-0.21558 -0.46196,0.0257 -0.91622,-0.0411 -1.36278,-0.13089 -0.29771,-0.18478 -0.60825,-0.34134 -0.91879,-0.48763 -0.57745,0.0821 -1.1934,0.29515 -1.74775,0.0154 -0.59798,-0.19248 -1.00605,-0.73913 -1.62199,-0.88285 -0.50303,-0.11293 -0.95985,-0.34134 -1.38075,-0.62622 -0.59542,-0.22071 -1.1241,-0.62108 -1.78111,-0.62621 -0.31568,-0.30284 -0.60312,-0.62621 -0.85206,-0.98038 -0.94959,-0.3593 -1.45261,-1.25499 -2.17635,-1.89917 -0.27461,-0.26434 -0.367,-0.65188 -0.52869,-0.98295 -0.14115,-0.0744 -0.42346,-0.22585 -0.56461,-0.30284 0.0411,-0.19248 0.12575,-0.58002 0.16682,-0.77507 -0.11549,-0.077 -0.34391,-0.23098 -0.4594,-0.30797 -0.43373,-0.67241 -0.98551,-1.30119 -0.99321,-2.14811 -0.14629,-1.05994 -0.23355,-2.12759 -0.27975,-3.19266 0.10266,-1.06251 0.4055,-2.09422 0.48763,-3.15929 0.57745,-0.7956 0.83666,-1.77598 1.1241,-2.6999 0.29258,-0.49789 0.53382,-1.03171 0.89826,-1.48341 0.55692,-0.46966 1.15233,-0.89569 1.65536,-1.42951 0.47222,-0.45426 0.88798,-1.02658 1.55783,-1.2011 0.0539,-0.0924 0.16425,-0.27717 0.22071,-0.36956 0.89056,-0.0231 1.64766,-0.50303 2.279,-1.09588 m 3.76498,7.10649 c -0.23098,0.54922 -0.62365,1.01118 -0.85463,1.5604 -0.20018,0.66727 -0.31054,1.35765 -0.54665,2.01466 0.0693,0.47479 0.17452,0.94702 0.32594,1.40641 0.19505,0.57488 0.3285,1.1703 0.50302,1.75545 1.82988,-1.03171 3.20036,-3.04637 3.25169,-5.17395 0.18991,-0.87516 0.98551,-1.9813 0.11292,-2.74097 -1.02144,0.0334 -1.97359,0.59285 -2.79229,1.178 z"
   id="path88" /><path
   style="fill:#000000"
   inkscape:connector-curvature="0"
   d="m 317.95661,189.03372 c 0.73657,0.23354 1.40128,0.64161 1.9351,1.20879 0.24895,0.0154 0.50303,0.0308 0.75967,0.0513 0.48249,0.79817 1.46801,0.29514 2.21741,0.41577 0.85719,-0.11036 1.5527,0.41576 2.14555,0.96241 0.20531,0.67498 0.57745,1.34739 0.50559,2.07626 0.18221,0.48506 0.47992,0.98808 0.28744,1.52447 -0.23098,0.78789 -0.0667,1.60402 0.0847,2.39192 -0.36957,1.12154 0.34391,2.20201 0.444,3.31842 0.75196,1.46287 1.03427,3.09256 1.44747,4.66836 0.077,0.96242 -0.31054,1.8889 -0.39523,2.84105 -0.56719,0.75197 -1.49624,1.09074 -2.05316,1.86324 -0.27717,0.0796 -0.55178,0.16425 -0.82126,0.24895 -0.0667,0.11549 -0.19762,0.3439 -0.26434,0.45682 -1.18827,0.67498 -2.58185,0.23098 -3.81117,0.73914 -0.059,-0.0411 -0.17452,-0.12575 -0.23355,-0.16682 -0.4132,0.34134 -0.90852,0.52612 -1.43721,0.56205 -0.78277,-0.96498 -0.65958,-2.2405 -1.08304,-3.34921 -0.35417,-1.89403 -1.14207,-3.75214 -2.48175,-5.15599 -1.00092,2.20201 -2.3868,4.20897 -3.82144,6.14921 -0.65957,0.95471 -1.62969,1.62199 -2.43299,2.44582 -0.46709,0.56975 -1.28065,0.49019 -1.9197,0.71347 -1.28322,-0.58772 -2.90008,0.19505 -4.03188,-0.81356 -0.98552,-0.7417 -2.45609,-0.83153 -3.16186,-1.89661 -0.19505,-0.0847 -0.3901,-0.16425 -0.58002,-0.24124 -0.003,-0.20788 -0.005,-0.62621 -0.008,-0.83666 -0.0796,-0.0847 -0.24125,-0.25408 -0.32081,-0.33877 -0.61081,-1.76828 -1.37304,-3.49293 -1.85297,-5.29971 0.21045,-1.5527 0.24638,-3.12593 0.34647,-4.6889 0.13346,-0.56205 0.24638,-1.12667 0.29514,-1.70155 0.018,-0.70834 0.55949,-1.27039 0.59029,-1.97873 0.20788,-0.56718 0.36956,-1.1472 0.55178,-1.71952 0.60055,-0.88285 1.25243,-1.75031 1.67589,-2.73583 0.84693,-0.41063 1.8658,-0.60824 2.72043,-0.095 0.74427,0.20275 0.41576,1.1549 0.91366,1.60147 0.55178,0.64417 0.55948,1.5219 0.84179,2.2867 0.29771,0.7417 0.0411,1.55526 0.22328,2.32263 0.35674,1.63483 0.53639,3.35948 1.27809,4.87368 1.07534,1.5527 3.21062,0.86233 4.45535,-0.0975 0.367,-0.48506 0.91879,-0.72887 1.43977,-1.00605 1.00092,-1.10871 2.06856,-2.24821 2.50229,-3.71621 0.29257,-1.14207 0.54408,-2.29954 0.97268,-3.40054 0.51586,-1.178 0.25408,-2.61008 1.07791,-3.66745 0.49789,-0.059 0.84949,-0.33364 0.99834,-0.81613 z"
   id="path90" /><g
   transform="matrix(0.25664449,0,0,0.25664449,97.013938,83.49894)"
   id="#119462ff"><path
     style="fill:#119462"
     inkscape:connector-curvature="0"
     d="m 831.98,554.5 c 17.64,-0.63 35.31,-1.59 52.96,-0.56 34.15,1.68 68.16,5.71 101.87,11.33 8.31,1.15 16.2,4.05 24.34,5.95 0.74,1.33 1.61,2.6 2.84,3.56 1.31,5.37 -0.18,10.94 -2.34,15.88 -1.61,3.36 -5.7,4.02 -8.87,5.13 -6.98,1.94 -14.37,6.3 -21.68,3.18 -10.59,-4.76 -22.28,0.47 -33.17,-2.51 -7.84,-1.94 -15.95,-1.24 -23.92,-2.02 -8.67,-0.74 -17.38,-0.87 -26.07,-0.25 -9.98,0.06 -19.99,0.36 -29.94,-0.47 -10.65,-0.8 -21.41,-1.33 -32.01,0.26 -6.31,0.81 -12.69,0.67 -19,1.48 -4.91,0.85 -8.49,-3.31 -13.09,-4.09 -6.43,-1.29 -12.83,-4.5 -16.35,-10.23 -1.29,-4.36 0.2,-8.97 0.24,-13.42 2.34,-2.35 4.81,-4.75 8,-5.88 11.65,-4.08 23.82,-6.9 36.19,-7.34 z"
     id="path93" /></g></svg>